<svg xmlns="http://www.w3.org/2000/svg" width="1200" height="630" viewBox="0 0 1200 630">
  <!-- 배경 흰색 -->
  <rect width="1200" height="630" fill="#ffffff"/>

  <!-- 왼쪽 액센트 바 -->
  <rect x="0" y="0" width="8" height="630" fill="#2563eb"/>

  <!-- 오른쪽 장식 원 -->
  <circle cx="950" cy="315" r="260" fill="#eff6ff"/>
  <circle cx="950" cy="315" r="190" fill="#dbeafe"/>

  <!-- 브랜드 이모지 -->
  <text x="950" y="170" font-size="50" text-anchor="middle" font-family="Arial">🍗</text>
  <text x="1090" y="240" font-size="44" text-anchor="middle" font-family="Arial">🥐</text>
  <text x="1120" y="330" font-size="44" text-anchor="middle" font-family="Arial">☕</text>
  <text x="1070" y="430" font-size="44" text-anchor="middle" font-family="Arial">🍔</text>
  <text x="950" y="480" font-size="44" text-anchor="middle" font-family="Arial">🍕</text>
  <text x="820" y="430" font-size="44" text-anchor="middle" font-family="Arial">🍦</text>
  <text x="775" y="330" font-size="44" text-anchor="middle" font-family="Arial">🍩</text>
  <text x="820" y="240" font-size="44" text-anchor="middle" font-family="Arial">💄</text>
  <text x="950" y="345" font-size="64" text-anchor="middle" font-family="Arial">🗺️</text>

  <!-- 로고 배지 -->
  <rect x="80" y="90" width="52" height="52" rx="13" fill="#2563eb"/>
  <text x="106" y="127" font-size="26" text-anchor="middle" font-family="Arial">🗺️</text>

  <!-- 서비스명 -->
  <text x="146" y="118" font-family="Arial, sans-serif" font-size="15" font-weight="700" fill="#2563eb" letter-spacing="1.5">PUCHA PUCHA</text>
  <text x="146" y="137" font-family="Arial, sans-serif" font-size="12" fill="#94a3b8">프차프차</text>

  <!-- 메인 타이틀 -->
  <text x="80" y="240" font-family="Arial, sans-serif" font-size="64" font-weight="700" fill="#111827" letter-spacing="-1">전국 프랜차이즈</text>
  <text x="80" y="318" font-family="Arial, sans-serif" font-size="64" font-weight="700" fill="#111827" letter-spacing="-1">가맹점 지도</text>

  <!-- 강조 언더라인 -->
  <rect x="80" y="328" width="540" height="5" rx="3" fill="#2563eb" opacity="0.3"/>

  <!-- 서브 텍스트 -->
  <text x="80" y="390" font-family="Arial, sans-serif" font-size="22" fill="#6b7280">교촌 · BBQ · BHC · 스타벅스 · 파리바게뜨 외 20개 브랜드</text>

  <!-- 구분선 -->
  <rect x="80" y="420" width="560" height="1" fill="#e5e7eb"/>

  <!-- 기능 태그 -->
  <rect x="80" y="440" width="140" height="32" rx="16" fill="#eff6ff"/>
  <text x="150" y="462" font-family="Arial, sans-serif" font-size="13" font-weight="600" fill="#2563eb" text-anchor="middle">브랜드 필터</text>

  <rect x="232" y="440" width="140" height="32" rx="16" fill="#eff6ff"/>
  <text x="302" y="462" font-family="Arial, sans-serif" font-size="13" font-weight="600" fill="#2563eb" text-anchor="middle">지역별 검색</text>

  <rect x="384" y="440" width="140" height="32" rx="16" fill="#eff6ff"/>
  <text x="454" y="462" font-family="Arial, sans-serif" font-size="13" font-weight="600" fill="#2563eb" text-anchor="middle">클러스터 지도</text>

  <!-- URL -->
  <text x="80" y="560" font-family="Arial, sans-serif" font-size="16" fill="#94a3b8">pucha-pucha.vercel.app</text>
</svg>
